<svg width="21" height="21" viewBox="0 0 21 21" fill="none" xmlns="http://www.w3.org/2000/svg">
<path d="M10.5 16.3334C10.3345 16.3343 10.1724 16.286 10.0345 16.1945C9.89654 16.103 9.78898 15.9725 9.72551 15.8196C9.66204 15.6667 9.64553 15.4984 9.67808 15.3361C9.71064 15.1738 9.79079 15.0249 9.90832 14.9084L14.325 10.5L9.90832 6.09169C9.7718 5.93227 9.70046 5.72721 9.70856 5.51748C9.71666 5.30775 9.8036 5.1088 9.95201 4.96039C10.1004 4.81197 10.2994 4.72503 10.5091 4.71693C10.7188 4.70883 10.9239 4.78017 11.0833 4.91669L16.0833 9.91669C16.2385 10.0728 16.3256 10.284 16.3256 10.5042C16.3256 10.7243 16.2385 10.9356 16.0833 11.0917L11.0833 16.0917C10.9281 16.2456 10.7186 16.3324 10.5 16.3334Z" fill="white"/>
<path d="M5.49998 16.3333C5.33446 16.3343 5.17241 16.286 5.03447 16.1945C4.89654 16.103 4.78898 15.9725 4.72551 15.8196C4.66204 15.6667 4.64553 15.4984 4.67808 15.3361C4.71064 15.1738 4.79079 15.0249 4.90832 14.9083L9.32499 10.5L4.90832 6.09168C4.7514 5.93476 4.66324 5.72193 4.66324 5.50001C4.66324 5.27809 4.7514 5.06527 4.90832 4.90835C5.06524 4.75143 5.27807 4.66327 5.49998 4.66327C5.7219 4.66327 5.93473 4.75143 6.09165 4.90835L11.0917 9.90835C11.2469 10.0645 11.334 10.2757 11.334 10.4958C11.334 10.716 11.2469 10.9272 11.0917 11.0833L6.09165 16.0833C6.01447 16.1621 5.92243 16.2247 5.82087 16.2676C5.71931 16.3106 5.61024 16.3329 5.49998 16.3333Z" fill="white"/>
</svg>
