<svg width="188" height="42" viewBox="0 0 188 42" fill="none" xmlns="http://www.w3.org/2000/svg">
<path d="M142.768 16.0317C143.117 15.4898 146.476 10.8 146.884 10.3055C149.287 7.40033 151.766 5.48861 154.319 4.57038C155.913 4.00589 157.312 3.8501 158.519 4.10298L158.575 4.13234H158.606C157.673 5.17409 156.829 6.29354 156.085 7.4786C155.298 8.73701 154.643 10.0741 154.132 11.4684C153.621 12.8059 153.292 14.2064 153.154 15.632C153.036 16.9574 153.241 18.2916 153.751 19.5202C154.296 20.8062 155.203 21.9049 156.362 22.6813C159.216 24.6879 163.094 25.0484 167.997 23.7629C171.777 22.7915 175.326 21.0727 178.435 18.7073C178.767 18.4349 179.102 18.1669 179.442 17.9035C179.781 17.6401 180.136 17.3481 180.505 17.0274C180.875 16.7045 181.197 16.4268 181.467 16.1942C181.738 15.9617 182.08 15.6523 182.49 15.273L183.423 14.4105C183.637 14.2163 183.97 13.9002 184.428 13.4621C184.885 13.0241 185.191 12.7306 185.347 12.5838C185.502 12.437 185.831 12.1209 186.338 11.6355C186.845 11.15 187.154 10.8452 187.271 10.7323C187.397 10.6132 187.491 10.4631 187.542 10.2969C187.594 10.1307 187.601 9.95392 187.564 9.78396C187.527 9.61674 187.453 9.46011 187.346 9.32594C187.24 9.19176 187.105 9.08354 186.951 9.00949C186.589 8.81634 186.171 8.7587 185.77 8.84691C185.359 8.93146 184.98 9.1293 184.675 9.41817C183.49 10.5667 182.645 11.3751 182.139 11.8432C181.632 12.3113 180.816 13.0519 179.69 14.065C178.562 15.0781 177.66 15.8307 176.986 16.3229C176.312 16.8152 175.423 17.4339 174.319 18.179C173.366 18.8311 172.36 19.4029 171.313 19.8882C170.308 20.3293 169.282 20.7197 168.238 21.0578C167.116 21.434 165.966 21.7164 164.798 21.9023C162.582 22.235 160.653 21.8948 159.01 20.8817C157.367 19.8687 156.525 18.261 156.486 16.0588C156.447 14.0131 156.992 11.938 158.12 9.83363C159.216 7.77145 160.645 5.90526 162.349 4.31072C162.455 4.21203 162.54 4.09221 162.598 3.95887C162.656 3.82554 162.685 3.68161 162.684 3.53624C162.696 3.39369 162.671 3.25049 162.613 3.12012C162.554 2.98976 162.463 2.87653 162.349 2.79112C161.147 1.91504 159.699 1.46345 158.005 1.43636C156.375 1.40704 154.753 1.67955 153.222 2.24019C151.745 2.78547 150.343 3.51771 149.052 4.4191C149.77 3.69806 150.521 3.00638 151.305 2.34405C151.561 2.14479 151.745 1.86737 151.829 1.55377C151.944 1.02767 151.904 0.445125 151.32 0.153851C150.644 -0.178066 149.836 0.063533 149.293 0.530926C147.364 2.16457 145.58 3.96341 143.962 5.90708C143.288 6.72596 142.647 7.56967 142.04 8.43823C141.452 9.28044 140.927 10.0865 140.143 10.7594C139.242 11.5226 138.366 12.2858 137.44 13.0173C134.766 15.0924 131.974 16.9078 128.845 18.1948C127.678 18.6748 126.457 19.0092 125.208 19.1905C123.949 19.3716 122.675 19.4193 121.405 19.3328C117.801 19.107 115.976 15.9301 115.586 12.6922C115.494 11.9335 115.395 11.1342 115.066 10.4342C114.615 9.48365 113.975 9.04335 113.11 9.10432C113.11 9.10432 113.097 9.10432 113.09 9.12012C112.923 9.1313 112.761 9.17943 112.616 9.26105C112.47 9.34266 112.344 9.45572 112.247 9.59203C108.581 14.5309 105.654 19.9795 103.558 25.7656C103.12 26.9804 102.719 28.211 102.35 29.4483C101.969 30.7286 101.751 32.1285 101.273 33.3659C100.73 32.1285 100.489 30.6563 100.083 29.3625C99.4932 27.4779 98.8519 25.6098 98.1594 23.7583C97.4453 21.8549 96.5486 20.0124 95.8569 18.1135C94.7304 15.5733 93.5206 13.0783 92.2319 10.6194C91.9706 10.1204 91.752 9.42043 91.2271 9.1427C90.4881 8.73326 89.7206 8.86949 88.9245 9.55139C87.6419 10.6804 86.5492 11.6151 85.6465 12.3558C84.7438 13.0964 83.6459 13.9453 82.3527 14.9027C81.2045 15.7739 79.9911 16.5552 78.7231 17.2397C77.5967 17.8343 76.368 18.404 75.0373 18.9489C73.7177 19.4915 72.3369 19.8707 70.9256 20.0779C69.5023 20.2821 68.0615 20.3358 66.627 20.2382C65.3248 20.1614 64.2516 19.8303 63.4075 19.2447C62.4687 18.5498 61.6986 17.6514 61.1545 16.6165C60.4937 15.4469 59.7164 14.5949 58.8227 14.0605C57.9291 13.5261 56.8213 13.3003 55.4996 13.3831C55.4416 13.3845 55.3837 13.3891 55.3261 13.3967C55.268 13.4058 55.2093 13.4111 55.1504 13.4125C55.0332 13.0602 54.8981 12.6719 54.7426 12.2429C54.4586 11.55 54.2245 10.8377 54.0419 10.1114C53.9065 9.46529 53.9118 8.79752 54.0577 8.15373C54.2128 7.41703 54.5711 6.73875 55.0918 6.19609C56.5653 4.62457 58.5066 3.54678 60.9157 2.96273C61.5916 2.78886 62.1346 2.7979 62.5334 2.99208C62.7219 3.08167 62.8835 3.21938 63.0022 3.39138C63.1208 3.56338 63.1922 3.76363 63.2092 3.97202C63.2657 4.44298 63.2558 4.91955 63.18 5.38775C63.18 5.44194 63.1529 5.49839 63.1439 5.55258C63.0584 6.01388 62.934 6.46709 62.7722 6.90734C62.6552 7.18582 62.6448 7.49773 62.7429 7.78342C62.9742 8.2892 63.4691 8.53231 64.2276 8.51274C64.6782 8.51274 65.2099 8.43145 65.5163 8.06115C65.6688 7.85528 65.7881 7.62671 65.87 7.38377C66.2935 6.31802 66.6473 5.17325 66.6473 4.01718C66.6271 3.56955 66.535 3.1281 66.3746 2.70984C66.0983 1.99105 65.5857 1.38814 64.9215 1.00058C64.1712 0.566412 63.325 0.325887 62.459 0.300617C61.6549 0.296674 60.8529 0.384547 60.0686 0.562537C59.0786 0.728105 58.1109 1.00768 57.1848 1.39572C56.3088 1.7435 55.4522 2.13846 54.6187 2.57888C53.9383 2.94918 53.0739 3.44592 52.0255 4.06912C49.68 5.49431 47.4125 7.04473 45.2329 8.7137C44.4578 9.29925 43.1706 10.3703 41.3713 11.9267C39.9982 13.1497 38.5635 14.3013 37.0726 15.3769C34.9249 16.9122 32.5742 18.1402 30.0884 19.0257C28.8254 19.478 27.5238 19.8136 26.1998 20.0282C24.4583 20.2901 22.7618 20.1592 20.982 19.8702C19.48 19.6377 17.9989 19.2859 16.5527 18.818C15.4971 18.4771 14.4672 18.0613 13.4706 17.5738C12.1762 16.9154 10.9328 16.1606 9.75097 15.3159C8.42472 14.3947 7.29899 13.5796 6.37377 12.8706C5.44856 12.1616 4.32809 11.2584 3.01236 10.161C2.19528 9.50774 1.40825 9.37828 0.651252 9.77267C0.493932 9.84342 0.355335 9.95012 0.246571 10.0842C0.137806 10.2183 0.0618977 10.3761 0.0249287 10.5449C-0.0142297 10.7083 -0.00714233 10.8793 0.045394 11.0389C0.0979302 11.1984 0.193833 11.3401 0.32232 11.4481C1.73718 12.6116 2.98757 13.6051 4.0735 14.4285C5.15943 15.2519 6.41883 16.1626 7.85172 17.1606C9.16033 18.067 10.533 18.8767 11.9589 19.5834C13.6302 20.3924 15.3433 21.1115 17.0911 21.7375C19.2305 22.5172 21.5045 22.8581 23.7779 22.74C26.4435 22.5956 29.074 22.0632 31.5867 21.1595C33.3188 20.5252 34.9892 19.7331 36.577 18.7931C37.7116 18.127 38.8069 17.3957 39.8573 16.6029C40.9162 15.8036 42.2079 14.7499 43.7324 13.4418C45.2569 12.1337 46.2625 11.2862 46.7491 10.8994C47.838 10.0233 49.1695 9.06894 50.7436 8.03631C50.54 8.97383 50.5601 9.94627 50.8022 10.8745C51.0004 11.6377 51.2978 12.3716 51.5524 13.1189C51.8851 14.0941 52.1457 15.0926 52.3319 16.1062C52.3905 16.4223 52.4356 16.7407 52.4626 17.0568C52.5978 18.6238 52.3027 20.1569 51.0635 21.2994C50.4627 21.8429 49.5931 22.1439 48.4546 22.2026C47.3161 22.2613 46.4757 21.9603 45.9335 21.2994C45.7645 21.0262 45.6626 20.7167 45.6361 20.3963C45.6338 20.2361 45.6079 20.0771 45.5595 19.9244V19.895C45.4538 19.5585 45.2419 19.2655 44.9558 19.06C44.6697 18.8544 44.3248 18.7474 43.9729 18.7551C43.6209 18.7627 43.281 18.8845 43.004 19.1023C42.7271 19.3201 42.5281 19.622 42.4369 19.9627C42.3955 20.1036 42.3735 20.2495 42.3716 20.3963C42.3716 20.4347 42.3716 20.4685 42.3829 20.5046C42.3752 21.1582 42.5375 21.8026 42.8537 22.3742C43.5341 23.6206 45.0008 24.3612 47.2538 24.596C49.2544 24.8083 51.0372 24.4139 52.6023 23.4129C54.1674 22.4119 55.1819 20.951 55.646 19.0302C55.8828 17.9932 55.9225 16.9208 55.7632 15.8691C55.8117 15.8697 55.8599 15.875 55.9074 15.8849L56.0245 15.8985C56.5393 15.9512 57.0167 16.1924 57.3651 16.5758C57.7956 17.0633 58.1627 17.6035 58.4577 18.1835C58.7024 18.6644 58.9802 19.1277 59.2891 19.5699C60.8827 21.5945 63.3797 22.6557 66.7802 22.7536C68.3819 22.8153 69.9857 22.7162 71.5677 22.4578C73.3517 22.1129 75.0978 21.5941 76.7811 20.9088C77.9827 20.3985 79.1227 19.8649 80.2011 19.3079C81.5987 18.5681 82.9385 17.7235 84.2091 16.7813C85.6074 15.7577 86.8368 14.8177 87.8972 13.9611C88.1721 13.7354 88.4627 13.5096 88.7601 13.2544C90.045 15.3644 91.2204 17.5394 92.2815 19.7708C93.3914 22.095 94.5051 24.6352 95.6226 27.3914C96.0597 28.4932 96.719 30.2589 97.6007 32.6885C98.4824 35.118 99.6088 38.2219 100.98 42.0002L106.241 27.4139C107.276 24.5644 108.335 21.9723 109.417 19.6376C110.454 17.3901 111.623 15.2059 112.916 13.0964C113.459 15.2662 113.849 17.6596 115.424 19.3599C116.927 20.9991 118.954 22.1981 121.185 22.4329C121.378 22.4532 121.574 22.4668 121.77 22.4713C123.224 22.527 124.68 22.4331 126.114 22.1913C128.28 21.7577 130.363 20.981 132.285 19.8905C134.333 18.6464 136.194 17.1245 138.041 15.5869C136.972 18.0642 136.157 20.644 135.608 23.2864C135.559 23.4648 135.552 23.6523 135.587 23.8339C135.623 24.0156 135.7 24.1865 135.813 24.333C135.925 24.4796 136.071 24.5978 136.237 24.6784C136.403 24.7589 136.586 24.7995 136.771 24.797C137.672 24.797 138.012 23.7922 138.413 23.1374C139.859 20.7696 141.311 18.401 142.768 16.0317Z" fill="white"/>
</svg>
