<svg width="24" height="25" viewBox="0 0 24 25" fill="none" xmlns="http://www.w3.org/2000/svg">
<path d="M15.104 3.99006C15.1625 3.87245 15.2436 3.76751 15.3426 3.68123C15.4417 3.59496 15.5567 3.52905 15.6813 3.48726C15.8058 3.44547 15.9374 3.42862 16.0684 3.43768C16.1994 3.44675 16.3274 3.48153 16.445 3.54006C18.1135 4.36801 19.5176 5.64551 20.4991 7.22859C21.4806 8.81168 22.0004 10.6374 22 12.5001C22.0004 14.3627 21.4806 16.1885 20.4991 17.7715C19.5176 19.3546 18.1135 20.6321 16.445 21.4601C16.3273 21.5197 16.1989 21.5554 16.0673 21.5651C15.9358 21.5749 15.8035 21.5585 15.6783 21.5169C15.5531 21.4754 15.4373 21.4094 15.3377 21.3229C15.2381 21.2364 15.1566 21.131 15.0978 21.0129C15.0391 20.8947 15.0044 20.7661 14.9956 20.6344C14.9868 20.5028 15.0042 20.3707 15.0467 20.2458C15.0892 20.1209 15.1559 20.0056 15.2432 19.9066C15.3304 19.8076 15.4364 19.7269 15.555 19.6691C16.8902 19.0068 18.0138 17.9847 18.7991 16.718C19.5845 15.4513 20.0004 13.9905 20 12.5001C20.0004 11.0097 19.5845 9.54879 18.7991 8.28212C18.0138 7.01545 16.8902 5.99336 15.555 5.33106C15.3177 5.21295 15.137 5.00546 15.0527 4.7542C14.9683 4.50294 14.9871 4.22845 15.105 3.99106L15.104 3.99006ZM6 8.50006H4C3.46957 8.50006 2.96086 8.71078 2.58579 9.08585C2.21071 9.46092 2 9.96963 2 10.5001V14.5001C2 15.0305 2.21071 15.5392 2.58579 15.9143C2.96086 16.2894 3.46957 16.5001 4 16.5001H6L10.36 20.1331C10.506 20.2547 10.6836 20.3322 10.8721 20.3565C11.0605 20.3808 11.252 20.3509 11.4241 20.2703C11.5962 20.1897 11.7417 20.0618 11.8437 19.9015C11.9457 19.7411 11.9999 19.5551 12 19.3651V5.63506C11.9999 5.44505 11.9457 5.25899 11.8437 5.09867C11.7417 4.93835 11.5962 4.81041 11.4241 4.72982C11.252 4.64924 11.0605 4.61935 10.8721 4.64365C10.6836 4.66796 10.506 4.74546 10.36 4.86706L6 8.50006Z" fill="white"/>
<path d="M16.8 8.9C16.7212 8.79494 16.6225 8.70643 16.5095 8.63953C16.3965 8.57262 16.2714 8.52862 16.1414 8.51005C16.0114 8.49148 15.879 8.49869 15.7518 8.53129C15.6246 8.56388 15.5051 8.62121 15.4 8.7C15.2949 8.77879 15.2064 8.87751 15.1395 8.99051C15.0726 9.10351 15.0286 9.22858 15.0101 9.35858C14.9915 9.48858 14.9987 9.62097 15.0313 9.74818C15.0639 9.87539 15.1212 9.99494 15.2 10.1C15.703 10.769 16 11.598 16 12.5C16 13.402 15.703 14.231 15.2 14.9C15.0409 15.1122 14.9725 15.3789 15.0101 15.6414C15.0476 15.904 15.1878 16.1409 15.4 16.3C15.6122 16.4591 15.8789 16.5275 16.1414 16.4899C16.404 16.4524 16.6409 16.3122 16.8 16.1C17.553 15.098 18 13.85 18 12.5C18 11.15 17.553 9.902 16.8 8.9Z" fill="white"/>
</svg>
