<svg width="28" height="28" viewBox="0 0 28 28" fill="none" xmlns="http://www.w3.org/2000/svg">
<path d="M25.6667 10.5V17.5C25.6667 17.7566 25.6667 18.0133 25.6434 18.2583C24.6867 17.08 23.2284 16.3333 21.5834 16.3333C20.3467 16.3333 19.2034 16.765 18.305 17.4883C17.0917 18.445 16.3334 19.9266 16.3334 21.5833C16.3334 22.5633 16.6134 23.4967 17.0917 24.29C17.4067 24.815 17.8034 25.27 18.27 25.6433C18.025 25.6666 17.7684 25.6666 17.5 25.6666H10.5C4.66671 25.6666 2.33337 23.3333 2.33337 17.5V10.5C2.33337 4.66665 4.66671 2.33331 10.5 2.33331H17.5C23.3334 2.33331 25.6667 4.66665 25.6667 10.5Z" stroke="white" stroke-width="2" stroke-linecap="round" stroke-linejoin="round"/>
<path d="M2.94006 8.29498H25.0601" stroke="white" stroke-width="2" stroke-linecap="round" stroke-linejoin="round"/>
<path d="M9.94006 2.46167V8.13165" stroke="white" stroke-width="2" stroke-linecap="round" stroke-linejoin="round"/>
<path d="M18.0601 2.46167V7.60671" stroke="white" stroke-width="2" stroke-linecap="round" stroke-linejoin="round"/>
<path d="M26.8334 21.5833C26.8334 22.5633 26.5534 23.4967 26.075 24.29C25.795 24.7567 25.445 25.1767 25.0367 25.5267C24.115 26.3433 22.9134 26.8333 21.5834 26.8333C20.335 26.8333 19.18 26.39 18.2817 25.6433H18.27C17.8034 25.27 17.4067 24.815 17.0917 24.29C16.6134 23.4967 16.3334 22.5633 16.3334 21.5833C16.3334 19.9266 17.0917 18.445 18.305 17.4883C19.2034 16.765 20.3467 16.3333 21.5834 16.3333C23.2284 16.3333 24.6867 17.08 25.6434 18.2583C26.39 19.1567 26.8334 20.3233 26.8334 21.5833Z" stroke="white" stroke-width="2" stroke-miterlimit="10" stroke-linecap="round" stroke-linejoin="round"/>
<path d="M19.5417 21.5833L20.8367 22.8783L23.6367 20.2883" stroke="white" stroke-width="2" stroke-linecap="round" stroke-linejoin="round"/>
</svg>
